<svg xmlns="http://www.w3.org/2000/svg" width="45" height="186" viewBox="0 0 45 186" fill="none"><g clip-path="url(#clip0_1648_5395)"><path d="M3.59814 6.5C5.255 6.5 6.59814 5.15685 6.59814 3.5C6.59814 1.84315 5.255 0.5 3.59814 0.5C1.94129 0.5 0.598145 1.84315 0.598145 3.5C0.598145 5.15685 1.94129 6.5 3.59814 6.5Z" fill="#36C2FF" fill-opacity="0.8"></path><path d="M21.5986 6.5C23.2555 6.5 24.5986 5.15685 24.5986 3.5C24.5986 1.84315 23.2555 0.5 21.5986 0.5C19.9418 0.5 18.5986 1.84315 18.5986 3.5C18.5986 5.15685 19.9418 6.5 21.5986 6.5Z" fill="#36C2FF" fill-opacity="0.8"></path><path d="M39.5996 6.5C41.2565 6.5 42.5996 5.15685 42.5996 3.5C42.5996 1.84315 41.2565 0.5 39.5996 0.5C37.9428 0.5 36.5996 1.84315 36.5996 3.5C36.5996 5.15685 37.9428 6.5 39.5996 6.5Z" fill="#36C2FF" fill-opacity="0.8"></path><path d="M3.59814 24.5C5.255 24.5 6.59814 23.1569 6.59814 21.5C6.59814 19.8431 5.255 18.5 3.59814 18.5C1.94129 18.5 0.598145 19.8431 0.598145 21.5C0.598145 23.1569 1.94129 24.5 3.59814 24.5Z" fill="#36C2FF" fill-opacity="0.8"></path><path d="M21.5986 24.5C23.2555 24.5 24.5986 23.1569 24.5986 21.5C24.5986 19.8431 23.2555 18.5 21.5986 18.5C19.9418 18.5 18.5986 19.8431 18.5986 21.5C18.5986 23.1569 19.9418 24.5 21.5986 24.5Z" fill="#36C2FF" fill-opacity="0.8"></path><path d="M39.5996 24.5C41.2565 24.5 42.5996 23.1569 42.5996 21.5C42.5996 19.8431 41.2565 18.5 39.5996 18.5C37.9428 18.5 36.5996 19.8431 36.5996 21.5C36.5996 23.1569 37.9428 24.5 39.5996 24.5Z" fill="#36C2FF" fill-opacity="0.8"></path><path d="M3.59814 42.5C5.255 42.5 6.59814 41.1569 6.59814 39.5C6.59814 37.8431 5.255 36.5 3.59814 36.5C1.94129 36.5 0.598145 37.8431 0.598145 39.5C0.598145 41.1569 1.94129 42.5 3.59814 42.5Z" fill="#36C2FF" fill-opacity="0.8"></path><path d="M21.5986 42.5C23.2555 42.5 24.5986 41.1569 24.5986 39.5C24.5986 37.8431 23.2555 36.5 21.5986 36.5C19.9418 36.5 18.5986 37.8431 18.5986 39.5C18.5986 41.1569 19.9418 42.5 21.5986 42.5Z" fill="#36C2FF" fill-opacity="0.8"></path><path d="M39.5996 42.5C41.2565 42.5 42.5996 41.1569 42.5996 39.5C42.5996 37.8431 41.2565 36.5 39.5996 36.5C37.9428 36.5 36.5996 37.8431 36.5996 39.5C36.5996 41.1569 37.9428 42.5 39.5996 42.5Z" fill="#36C2FF" fill-opacity="0.8"></path><path d="M3.59814 60.5C5.255 60.5 6.59814 59.1569 6.59814 57.5C6.59814 55.8431 5.255 54.5 3.59814 54.5C1.94129 54.5 0.598145 55.8431 0.598145 57.5C0.598145 59.1569 1.94129 60.5 3.59814 60.5Z" fill="#36C2FF" fill-opacity="0.8"></path><path d="M21.5986 60.5C23.2555 60.5 24.5986 59.1569 24.5986 57.5C24.5986 55.8431 23.2555 54.5 21.5986 54.5C19.9418 54.5 18.5986 55.8431 18.5986 57.5C18.5986 59.1569 19.9418 60.5 21.5986 60.5Z" fill="#36C2FF" fill-opacity="0.8"></path><path d="M39.5996 60.5C41.2565 60.5 42.5996 59.1569 42.5996 57.5C42.5996 55.8431 41.2565 54.5 39.5996 54.5C37.9428 54.5 36.5996 55.8431 36.5996 57.5C36.5996 59.1569 37.9428 60.5 39.5996 60.5Z" fill="#36C2FF" fill-opacity="0.8"></path><path d="M3.59814 78.5C5.255 78.5 6.59814 77.1569 6.59814 75.5C6.59814 73.8431 5.255 72.5 3.59814 72.5C1.94129 72.5 0.598145 73.8431 0.598145 75.5C0.598145 77.1569 1.94129 78.5 3.59814 78.5Z" fill="#36C2FF" fill-opacity="0.8"></path><path d="M21.5986 78.5C23.2555 78.5 24.5986 77.1569 24.5986 75.5C24.5986 73.8431 23.2555 72.5 21.5986 72.5C19.9418 72.5 18.5986 73.8431 18.5986 75.5C18.5986 77.1569 19.9418 78.5 21.5986 78.5Z" fill="#36C2FF" fill-opacity="0.8"></path><path d="M39.5996 78.5C41.2565 78.5 42.5996 77.1569 42.5996 75.5C42.5996 73.8431 41.2565 72.5 39.5996 72.5C37.9428 72.5 36.5996 73.8431 36.5996 75.5C36.5996 77.1569 37.9428 78.5 39.5996 78.5Z" fill="#36C2FF" fill-opacity="0.8"></path><path d="M3.59814 96.5C5.255 96.5 6.59814 95.1569 6.59814 93.5C6.59814 91.8431 5.255 90.5 3.59814 90.5C1.94129 90.5 0.598145 91.8431 0.598145 93.5C0.598145 95.1569 1.94129 96.5 3.59814 96.5Z" fill="#36C2FF" fill-opacity="0.8"></path><path d="M21.5986 96.5C23.2555 96.5 24.5986 95.1569 24.5986 93.5C24.5986 91.8431 23.2555 90.5 21.5986 90.5C19.9418 90.5 18.5986 91.8431 18.5986 93.5C18.5986 95.1569 19.9418 96.5 21.5986 96.5Z" fill="#36C2FF" fill-opacity="0.8"></path><path d="M39.5996 96.5C41.2565 96.5 42.5996 95.1569 42.5996 93.5C42.5996 91.8431 41.2565 90.5 39.5996 90.5C37.9428 90.5 36.5996 91.8431 36.5996 93.5C36.5996 95.1569 37.9428 96.5 39.5996 96.5Z" fill="#36C2FF" fill-opacity="0.8"></path><path d="M3.59814 114.5C5.255 114.5 6.59814 113.157 6.59814 111.5C6.59814 109.843 5.255 108.5 3.59814 108.5C1.94129 108.5 0.598145 109.843 0.598145 111.5C0.598145 113.157 1.94129 114.5 3.59814 114.5Z" fill="#36C2FF" fill-opacity="0.8"></path><path d="M21.5986 114.5C23.2555 114.5 24.5986 113.157 24.5986 111.5C24.5986 109.843 23.2555 108.5 21.5986 108.5C19.9418 108.5 18.5986 109.843 18.5986 111.5C18.5986 113.157 19.9418 114.5 21.5986 114.5Z" fill="#36C2FF" fill-opacity="0.8"></path><path d="M39.5996 114.5C41.2565 114.5 42.5996 113.157 42.5996 111.5C42.5996 109.843 41.2565 108.5 39.5996 108.5C37.9428 108.5 36.5996 109.843 36.5996 111.5C36.5996 113.157 37.9428 114.5 39.5996 114.5Z" fill="#36C2FF" fill-opacity="0.8"></path><path d="M3.59814 132.5C5.255 132.5 6.59814 131.157 6.59814 129.5C6.59814 127.843 5.255 126.5 3.59814 126.5C1.94129 126.5 0.598145 127.843 0.598145 129.5C0.598145 131.157 1.94129 132.5 3.59814 132.5Z" fill="#36C2FF" fill-opacity="0.8"></path><path d="M21.5986 132.5C23.2555 132.5 24.5986 131.157 24.5986 129.5C24.5986 127.843 23.2555 126.5 21.5986 126.5C19.9418 126.5 18.5986 127.843 18.5986 129.5C18.5986 131.157 19.9418 132.5 21.5986 132.5Z" fill="#36C2FF" fill-opacity="0.8"></path><path d="M39.5996 132.5C41.2565 132.5 42.5996 131.157 42.5996 129.5C42.5996 127.843 41.2565 126.5 39.5996 126.5C37.9428 126.5 36.5996 127.843 36.5996 129.5C36.5996 131.157 37.9428 132.5 39.5996 132.5Z" fill="#36C2FF" fill-opacity="0.8"></path><path d="M3.59814 150.5C5.255 150.5 6.59814 149.157 6.59814 147.5C6.59814 145.843 5.255 144.5 3.59814 144.5C1.94129 144.5 0.598145 145.843 0.598145 147.5C0.598145 149.157 1.94129 150.5 3.59814 150.5Z" fill="#36C2FF" fill-opacity="0.8"></path><path d="M21.5986 150.5C23.2555 150.5 24.5986 149.157 24.5986 147.5C24.5986 145.843 23.2555 144.5 21.5986 144.5C19.9418 144.5 18.5986 145.843 18.5986 147.5C18.5986 149.157 19.9418 150.5 21.5986 150.5Z" fill="#36C2FF" fill-opacity="0.8"></path><path d="M39.5996 150.5C41.2565 150.5 42.5996 149.157 42.5996 147.5C42.5996 145.843 41.2565 144.5 39.5996 144.5C37.9428 144.5 36.5996 145.843 36.5996 147.5C36.5996 149.157 37.9428 150.5 39.5996 150.5Z" fill="#36C2FF" fill-opacity="0.8"></path><path d="M3.59814 168.5C5.255 168.5 6.59814 167.157 6.59814 165.5C6.59814 163.843 5.255 162.5 3.59814 162.5C1.94129 162.5 0.598145 163.843 0.598145 165.5C0.598145 167.157 1.94129 168.5 3.59814 168.5Z" fill="#36C2FF" fill-opacity="0.8"></path><path d="M21.5986 168.5C23.2555 168.5 24.5986 167.157 24.5986 165.5C24.5986 163.843 23.2555 162.5 21.5986 162.5C19.9418 162.5 18.5986 163.843 18.5986 165.5C18.5986 167.157 19.9418 168.5 21.5986 168.5Z" fill="#36C2FF" fill-opacity="0.8"></path><path d="M39.5996 168.5C41.2565 168.5 42.5996 167.157 42.5996 165.5C42.5996 163.843 41.2565 162.5 39.5996 162.5C37.9428 162.5 36.5996 163.843 36.5996 165.5C36.5996 167.157 37.9428 168.5 39.5996 168.5Z" fill="#36C2FF" fill-opacity="0.8"></path><path d="M3.59814 186.5C5.255 186.5 6.59814 185.157 6.59814 183.5C6.59814 181.843 5.255 180.5 3.59814 180.5C1.94129 180.5 0.598145 181.843 0.598145 183.5C0.598145 185.157 1.94129 186.5 3.59814 186.5Z" fill="#36C2FF" fill-opacity="0.8"></path><path d="M21.5986 186.5C23.2555 186.5 24.5986 185.157 24.5986 183.5C24.5986 181.843 23.2555 180.5 21.5986 180.5C19.9418 180.5 18.5986 181.843 18.5986 183.5C18.5986 185.157 19.9418 186.5 21.5986 186.5Z" fill="#36C2FF" fill-opacity="0.8"></path><path d="M39.5996 186.5C41.2565 186.5 42.5996 185.157 42.5996 183.5C42.5996 181.843 41.2565 180.5 39.5996 180.5C37.9428 180.5 36.5996 181.843 36.5996 183.5C36.5996 185.157 37.9428 186.5 39.5996 186.5Z" fill="#36C2FF" fill-opacity="0.8"></path></g><defs><clipPath id="clip0_1648_5395"><rect width="45" height="186" fill="white"></rect></clipPath></defs></svg>