<svg xmlns="http://www.w3.org/2000/svg" width="461" height="383" viewBox="0 0 461 383" fill="none"><path d="M271 323.972C286.273 331.802 302.884 336.655 319.883 338.254C336.883 339.854 353.939 338.168 370.076 333.296C386.214 328.421 401.118 320.455 413.937 309.85C426.756 299.246 437.239 286.21 444.788 271.489C452.336 256.768 456.803 240.649 457.932 224.053C459.061 207.456 456.831 190.707 451.369 174.761C445.907 158.816 437.319 143.987 426.097 131.12C414.875 118.254 401.238 107.602 385.965 99.7731L271 323.972Z" fill="#36C2FF" fill-opacity="0.5"></path><path d="M183.159 53.069C167.496 46.0526 150.653 42.0793 133.593 41.3753C116.533 40.6713 99.5894 43.2506 83.7304 48.9643C67.8708 54.6799 53.4061 63.4186 41.162 74.6822C28.918 85.9457 19.1343 99.5135 12.3695 114.611C5.60468 129.709 1.99141 146.04 1.73579 162.673C1.48017 179.306 4.58726 195.915 10.8798 211.551C17.1723 227.187 26.5269 241.545 38.4095 253.804C50.2921 266.063 64.47 275.984 80.1337 282.999L183.159 53.069Z" fill="#36C2FF" fill-opacity="0.5"></path></svg>