<svg xmlns="http://www.w3.org/2000/svg" width="570" height="419" viewBox="0 0 570 419" fill="none"><g clip-path="url(#clip0_1634_4534)"><g clip-path="url(#clip1_1634_4534)"><g clip-path="url(#clip2_1634_4534)"><path d="M2.44727 193.857C3.79454 193.857 4.88672 192.765 4.88672 191.417C4.88672 190.07 3.79454 188.978 2.44727 188.978C1.09999 188.978 0.0078125 190.07 0.0078125 191.417C0.0078125 192.765 1.09999 193.857 2.44727 193.857Z" fill="#36C2FF" fill-opacity="0.8"></path><path d="M17.084 193.857C18.4313 193.857 19.5234 192.765 19.5234 191.417C19.5234 190.07 18.4313 188.978 17.084 188.978C15.7367 188.978 14.6445 190.07 14.6445 191.417C14.6445 192.765 15.7367 193.857 17.084 193.857Z" fill="#36C2FF" fill-opacity="0.8"></path><path d="M31.7217 193.857C33.069 193.857 34.1611 192.765 34.1611 191.417C34.1611 190.07 33.069 188.978 31.7217 188.978C30.3744 188.978 29.2822 190.07 29.2822 191.417C29.2822 192.765 30.3744 193.857 31.7217 193.857Z" fill="#36C2FF" fill-opacity="0.8"></path><path d="M46.3574 193.857C47.7047 193.857 48.7969 192.765 48.7969 191.417C48.7969 190.07 47.7047 188.978 46.3574 188.978C45.0101 188.978 43.918 190.07 43.918 191.417C43.918 192.765 45.0101 193.857 46.3574 193.857Z" fill="#36C2FF" fill-opacity="0.8"></path><path d="M60.9941 193.857C62.3414 193.857 63.4336 192.765 63.4336 191.417C63.4336 190.07 62.3414 188.978 60.9941 188.978C59.6469 188.978 58.5547 190.07 58.5547 191.417C58.5547 192.765 59.6469 193.857 60.9941 193.857Z" fill="#36C2FF" fill-opacity="0.8"></path><path d="M75.6309 193.857C76.9781 193.857 78.0703 192.765 78.0703 191.417C78.0703 190.07 76.9781 188.978 75.6309 188.978C74.2836 188.978 73.1914 190.07 73.1914 191.417C73.1914 192.765 74.2836 193.857 75.6309 193.857Z" fill="#36C2FF" fill-opacity="0.8"></path><path d="M90.2686 193.857C91.6158 193.857 92.708 192.765 92.708 191.417C92.708 190.07 91.6158 188.978 90.2686 188.978C88.9213 188.978 87.8291 190.07 87.8291 191.417C87.8291 192.765 88.9213 193.857 90.2686 193.857Z" fill="#36C2FF" fill-opacity="0.8"></path><path d="M104.904 193.857C106.252 193.857 107.344 192.765 107.344 191.417C107.344 190.07 106.252 188.978 104.904 188.978C103.557 188.978 102.465 190.07 102.465 191.417C102.465 192.765 103.557 193.857 104.904 193.857Z" fill="#36C2FF" fill-opacity="0.8"></path><path d="M119.541 193.857C120.888 193.857 121.98 192.765 121.98 191.417C121.98 190.07 120.888 188.978 119.541 188.978C118.194 188.978 117.102 190.07 117.102 191.417C117.102 192.765 118.194 193.857 119.541 193.857Z" fill="#36C2FF" fill-opacity="0.8"></path><path d="M134.178 193.857C135.525 193.857 136.617 192.765 136.617 191.417C136.617 190.07 135.525 188.978 134.178 188.978C132.83 188.978 131.738 190.07 131.738 191.417C131.738 192.765 132.83 193.857 134.178 193.857Z" fill="#36C2FF" fill-opacity="0.8"></path><path d="M148.815 193.857C150.163 193.857 151.255 192.765 151.255 191.417C151.255 190.07 150.163 188.978 148.815 188.978C147.468 188.978 146.376 190.07 146.376 191.417C146.376 192.765 147.468 193.857 148.815 193.857Z" fill="#36C2FF" fill-opacity="0.8"></path><path d="M163.451 193.857C164.798 193.857 165.891 192.765 165.891 191.417C165.891 190.07 164.798 188.978 163.451 188.978C162.104 188.978 161.012 190.07 161.012 191.417C161.012 192.765 162.104 193.857 163.451 193.857Z" fill="#36C2FF" fill-opacity="0.8"></path><path d="M2.44727 208.494C3.79454 208.494 4.88672 207.402 4.88672 206.054C4.88672 204.707 3.79454 203.615 2.44727 203.615C1.09999 203.615 0.0078125 204.707 0.0078125 206.054C0.0078125 207.402 1.09999 208.494 2.44727 208.494Z" fill="#36C2FF" fill-opacity="0.8"></path><path d="M17.084 208.494C18.4313 208.494 19.5234 207.401 19.5234 206.054C19.5234 204.707 18.4313 203.615 17.084 203.615C15.7367 203.615 14.6445 204.707 14.6445 206.054C14.6445 207.401 15.7367 208.494 17.084 208.494Z" fill="#36C2FF" fill-opacity="0.8"></path><path d="M31.7217 208.494C33.069 208.494 34.1611 207.401 34.1611 206.054C34.1611 204.707 33.069 203.615 31.7217 203.615C30.3744 203.615 29.2822 204.707 29.2822 206.054C29.2822 207.401 30.3744 208.494 31.7217 208.494Z" fill="#36C2FF" fill-opacity="0.8"></path><path d="M46.3574 208.494C47.7047 208.494 48.7969 207.401 48.7969 206.054C48.7969 204.707 47.7047 203.615 46.3574 203.615C45.0101 203.615 43.918 204.707 43.918 206.054C43.918 207.401 45.0101 208.494 46.3574 208.494Z" fill="#36C2FF" fill-opacity="0.8"></path><path d="M60.9941 208.494C62.3414 208.494 63.4336 207.402 63.4336 206.054C63.4336 204.707 62.3414 203.615 60.9941 203.615C59.6469 203.615 58.5547 204.707 58.5547 206.054C58.5547 207.402 59.6469 208.494 60.9941 208.494Z" fill="#36C2FF" fill-opacity="0.8"></path><path d="M75.6309 208.494C76.9781 208.494 78.0703 207.401 78.0703 206.054C78.0703 204.707 76.9781 203.615 75.6309 203.615C74.2836 203.615 73.1914 204.707 73.1914 206.054C73.1914 207.401 74.2836 208.494 75.6309 208.494Z" fill="#36C2FF" fill-opacity="0.8"></path><path d="M90.2686 208.494C91.6158 208.494 92.708 207.401 92.708 206.054C92.708 204.707 91.6158 203.615 90.2686 203.615C88.9213 203.615 87.8291 204.707 87.8291 206.054C87.8291 207.401 88.9213 208.494 90.2686 208.494Z" fill="#36C2FF" fill-opacity="0.8"></path><path d="M104.904 208.494C106.252 208.494 107.344 207.401 107.344 206.054C107.344 204.707 106.252 203.615 104.904 203.615C103.557 203.615 102.465 204.707 102.465 206.054C102.465 207.401 103.557 208.494 104.904 208.494Z" fill="#36C2FF" fill-opacity="0.8"></path><path d="M119.541 208.494C120.888 208.494 121.98 207.402 121.98 206.054C121.98 204.707 120.888 203.615 119.541 203.615C118.194 203.615 117.102 204.707 117.102 206.054C117.102 207.402 118.194 208.494 119.541 208.494Z" fill="#36C2FF" fill-opacity="0.8"></path><path d="M134.178 208.494C135.525 208.494 136.617 207.401 136.617 206.054C136.617 204.707 135.525 203.615 134.178 203.615C132.83 203.615 131.738 204.707 131.738 206.054C131.738 207.401 132.83 208.494 134.178 208.494Z" fill="#36C2FF" fill-opacity="0.8"></path><path d="M148.815 208.494C150.163 208.494 151.255 207.401 151.255 206.054C151.255 204.707 150.163 203.615 148.815 203.615C147.468 203.615 146.376 204.707 146.376 206.054C146.376 207.401 147.468 208.494 148.815 208.494Z" fill="#36C2FF" fill-opacity="0.8"></path><path d="M163.451 208.494C164.798 208.494 165.891 207.401 165.891 206.054C165.891 204.707 164.798 203.615 163.451 203.615C162.104 203.615 161.012 204.707 161.012 206.054C161.012 207.401 162.104 208.494 163.451 208.494Z" fill="#36C2FF" fill-opacity="0.8"></path><path d="M2.44727 223.131C3.79454 223.131 4.88672 222.039 4.88672 220.691C4.88672 219.344 3.79454 218.252 2.44727 218.252C1.09999 218.252 0.0078125 219.344 0.0078125 220.691C0.0078125 222.039 1.09999 223.131 2.44727 223.131Z" fill="#36C2FF" fill-opacity="0.8"></path><path d="M17.084 223.131C18.4313 223.131 19.5234 222.039 19.5234 220.691C19.5234 219.344 18.4313 218.252 17.084 218.252C15.7367 218.252 14.6445 219.344 14.6445 220.691C14.6445 222.039 15.7367 223.131 17.084 223.131Z" fill="#36C2FF" fill-opacity="0.8"></path><path d="M31.7217 223.131C33.069 223.131 34.1611 222.039 34.1611 220.691C34.1611 219.344 33.069 218.252 31.7217 218.252C30.3744 218.252 29.2822 219.344 29.2822 220.691C29.2822 222.039 30.3744 223.131 31.7217 223.131Z" fill="#36C2FF" fill-opacity="0.8"></path><path d="M46.3574 223.131C47.7047 223.131 48.7969 222.039 48.7969 220.691C48.7969 219.344 47.7047 218.252 46.3574 218.252C45.0101 218.252 43.918 219.344 43.918 220.691C43.918 222.039 45.0101 223.131 46.3574 223.131Z" fill="#36C2FF" fill-opacity="0.8"></path><path d="M60.9941 223.131C62.3414 223.131 63.4336 222.039 63.4336 220.691C63.4336 219.344 62.3414 218.252 60.9941 218.252C59.6469 218.252 58.5547 219.344 58.5547 220.691C58.5547 222.039 59.6469 223.131 60.9941 223.131Z" fill="#36C2FF" fill-opacity="0.8"></path><path d="M75.6309 223.131C76.9781 223.131 78.0703 222.039 78.0703 220.691C78.0703 219.344 76.9781 218.252 75.6309 218.252C74.2836 218.252 73.1914 219.344 73.1914 220.691C73.1914 222.039 74.2836 223.131 75.6309 223.131Z" fill="#36C2FF" fill-opacity="0.8"></path><path d="M90.2686 223.131C91.6158 223.131 92.708 222.039 92.708 220.691C92.708 219.344 91.6158 218.252 90.2686 218.252C88.9213 218.252 87.8291 219.344 87.8291 220.691C87.8291 222.039 88.9213 223.131 90.2686 223.131Z" fill="#36C2FF" fill-opacity="0.8"></path><path d="M104.904 223.131C106.252 223.131 107.344 222.039 107.344 220.691C107.344 219.344 106.252 218.252 104.904 218.252C103.557 218.252 102.465 219.344 102.465 220.691C102.465 222.039 103.557 223.131 104.904 223.131Z" fill="#36C2FF" fill-opacity="0.8"></path><path d="M119.541 223.131C120.888 223.131 121.98 222.039 121.98 220.691C121.98 219.344 120.888 218.252 119.541 218.252C118.194 218.252 117.102 219.344 117.102 220.691C117.102 222.039 118.194 223.131 119.541 223.131Z" fill="#36C2FF" fill-opacity="0.8"></path><path d="M134.178 223.131C135.525 223.131 136.617 222.039 136.617 220.691C136.617 219.344 135.525 218.252 134.178 218.252C132.83 218.252 131.738 219.344 131.738 220.691C131.738 222.039 132.83 223.131 134.178 223.131Z" fill="#36C2FF" fill-opacity="0.8"></path><path d="M148.815 223.131C150.163 223.131 151.255 222.039 151.255 220.691C151.255 219.344 150.163 218.252 148.815 218.252C147.468 218.252 146.376 219.344 146.376 220.691C146.376 222.039 147.468 223.131 148.815 223.131Z" fill="#36C2FF" fill-opacity="0.8"></path><path d="M163.451 223.131C164.798 223.131 165.891 222.039 165.891 220.691C165.891 219.344 164.798 218.252 163.451 218.252C162.104 218.252 161.012 219.344 161.012 220.691C161.012 222.039 162.104 223.131 163.451 223.131Z" fill="#36C2FF" fill-opacity="0.8"></path><path d="M2.44727 237.768C3.79454 237.768 4.88672 236.676 4.88672 235.329C4.88672 233.981 3.79454 232.889 2.44727 232.889C1.09999 232.889 0.0078125 233.981 0.0078125 235.329C0.0078125 236.676 1.09999 237.768 2.44727 237.768Z" fill="#36C2FF" fill-opacity="0.8"></path><path d="M17.084 237.768C18.4313 237.768 19.5234 236.676 19.5234 235.329C19.5234 233.981 18.4313 232.889 17.084 232.889C15.7367 232.889 14.6445 233.981 14.6445 235.329C14.6445 236.676 15.7367 237.768 17.084 237.768Z" fill="#36C2FF" fill-opacity="0.8"></path><path d="M31.7217 237.768C33.069 237.768 34.1611 236.676 34.1611 235.329C34.1611 233.981 33.069 232.889 31.7217 232.889C30.3744 232.889 29.2822 233.981 29.2822 235.329C29.2822 236.676 30.3744 237.768 31.7217 237.768Z" fill="#36C2FF" fill-opacity="0.8"></path><path d="M46.3574 237.768C47.7047 237.768 48.7969 236.676 48.7969 235.329C48.7969 233.981 47.7047 232.889 46.3574 232.889C45.0101 232.889 43.918 233.981 43.918 235.329C43.918 236.676 45.0101 237.768 46.3574 237.768Z" fill="#36C2FF" fill-opacity="0.8"></path><path d="M60.9941 237.768C62.3414 237.768 63.4336 236.676 63.4336 235.329C63.4336 233.981 62.3414 232.889 60.9941 232.889C59.6469 232.889 58.5547 233.981 58.5547 235.329C58.5547 236.676 59.6469 237.768 60.9941 237.768Z" fill="#36C2FF" fill-opacity="0.8"></path><path d="M75.6309 237.768C76.9781 237.768 78.0703 236.676 78.0703 235.329C78.0703 233.981 76.9781 232.889 75.6309 232.889C74.2836 232.889 73.1914 233.981 73.1914 235.329C73.1914 236.676 74.2836 237.768 75.6309 237.768Z" fill="#36C2FF" fill-opacity="0.8"></path><path d="M90.2686 237.768C91.6158 237.768 92.708 236.676 92.708 235.329C92.708 233.981 91.6158 232.889 90.2686 232.889C88.9213 232.889 87.8291 233.981 87.8291 235.329C87.8291 236.676 88.9213 237.768 90.2686 237.768Z" fill="#36C2FF" fill-opacity="0.8"></path><path d="M104.904 237.768C106.252 237.768 107.344 236.676 107.344 235.329C107.344 233.981 106.252 232.889 104.904 232.889C103.557 232.889 102.465 233.981 102.465 235.329C102.465 236.676 103.557 237.768 104.904 237.768Z" fill="#36C2FF" fill-opacity="0.8"></path><path d="M119.541 237.768C120.888 237.768 121.98 236.676 121.98 235.329C121.98 233.981 120.888 232.889 119.541 232.889C118.194 232.889 117.102 233.981 117.102 235.329C117.102 236.676 118.194 237.768 119.541 237.768Z" fill="#36C2FF" fill-opacity="0.8"></path><path d="M134.178 237.768C135.525 237.768 136.617 236.676 136.617 235.329C136.617 233.981 135.525 232.889 134.178 232.889C132.83 232.889 131.738 233.981 131.738 235.329C131.738 236.676 132.83 237.768 134.178 237.768Z" fill="#36C2FF" fill-opacity="0.8"></path><path d="M148.815 237.768C150.163 237.768 151.255 236.676 151.255 235.329C151.255 233.981 150.163 232.889 148.815 232.889C147.468 232.889 146.376 233.981 146.376 235.329C146.376 236.676 147.468 237.768 148.815 237.768Z" fill="#36C2FF" fill-opacity="0.8"></path><path d="M163.451 237.768C164.798 237.768 165.891 236.676 165.891 235.329C165.891 233.981 164.798 232.889 163.451 232.889C162.104 232.889 161.012 233.981 161.012 235.329C161.012 236.676 162.104 237.768 163.451 237.768Z" fill="#36C2FF" fill-opacity="0.8"></path><path d="M2.44727 252.404C3.79454 252.404 4.88672 251.311 4.88672 249.964C4.88672 248.617 3.79454 247.525 2.44727 247.525C1.09999 247.525 0.0078125 248.617 0.0078125 249.964C0.0078125 251.311 1.09999 252.404 2.44727 252.404Z" fill="#36C2FF" fill-opacity="0.8"></path><path d="M17.084 252.404C18.4313 252.404 19.5234 251.311 19.5234 249.964C19.5234 248.617 18.4313 247.525 17.084 247.525C15.7367 247.525 14.6445 248.617 14.6445 249.964C14.6445 251.311 15.7367 252.404 17.084 252.404Z" fill="#36C2FF" fill-opacity="0.8"></path><path d="M31.7217 252.404C33.069 252.404 34.1611 251.311 34.1611 249.964C34.1611 248.617 33.069 247.525 31.7217 247.525C30.3744 247.525 29.2822 248.617 29.2822 249.964C29.2822 251.311 30.3744 252.404 31.7217 252.404Z" fill="#36C2FF" fill-opacity="0.8"></path><path d="M46.3574 252.404C47.7047 252.404 48.7969 251.311 48.7969 249.964C48.7969 248.617 47.7047 247.525 46.3574 247.525C45.0101 247.525 43.918 248.617 43.918 249.964C43.918 251.311 45.0101 252.404 46.3574 252.404Z" fill="#36C2FF" fill-opacity="0.8"></path><path d="M60.9941 252.404C62.3414 252.404 63.4336 251.311 63.4336 249.964C63.4336 248.617 62.3414 247.525 60.9941 247.525C59.6469 247.525 58.5547 248.617 58.5547 249.964C58.5547 251.311 59.6469 252.404 60.9941 252.404Z" fill="#36C2FF" fill-opacity="0.8"></path><path d="M75.6309 252.404C76.9781 252.404 78.0703 251.311 78.0703 249.964C78.0703 248.617 76.9781 247.525 75.6309 247.525C74.2836 247.525 73.1914 248.617 73.1914 249.964C73.1914 251.311 74.2836 252.404 75.6309 252.404Z" fill="#36C2FF" fill-opacity="0.8"></path><path d="M90.2686 252.404C91.6158 252.404 92.708 251.311 92.708 249.964C92.708 248.617 91.6158 247.525 90.2686 247.525C88.9213 247.525 87.8291 248.617 87.8291 249.964C87.8291 251.311 88.9213 252.404 90.2686 252.404Z" fill="#36C2FF" fill-opacity="0.8"></path><path d="M104.904 252.404C106.252 252.404 107.344 251.311 107.344 249.964C107.344 248.617 106.252 247.525 104.904 247.525C103.557 247.525 102.465 248.617 102.465 249.964C102.465 251.311 103.557 252.404 104.904 252.404Z" fill="#36C2FF" fill-opacity="0.8"></path><path d="M119.541 252.404C120.888 252.404 121.98 251.311 121.98 249.964C121.98 248.617 120.888 247.525 119.541 247.525C118.194 247.525 117.102 248.617 117.102 249.964C117.102 251.311 118.194 252.404 119.541 252.404Z" fill="#36C2FF" fill-opacity="0.8"></path><path d="M134.178 252.404C135.525 252.404 136.617 251.311 136.617 249.964C136.617 248.617 135.525 247.525 134.178 247.525C132.83 247.525 131.738 248.617 131.738 249.964C131.738 251.311 132.83 252.404 134.178 252.404Z" fill="#36C2FF" fill-opacity="0.8"></path><path d="M148.815 252.404C150.163 252.404 151.255 251.311 151.255 249.964C151.255 248.617 150.163 247.525 148.815 247.525C147.468 247.525 146.376 248.617 146.376 249.964C146.376 251.311 147.468 252.404 148.815 252.404Z" fill="#36C2FF" fill-opacity="0.8"></path><path d="M163.451 252.404C164.798 252.404 165.891 251.311 165.891 249.964C165.891 248.617 164.798 247.525 163.451 247.525C162.104 247.525 161.012 248.617 161.012 249.964C161.012 251.311 162.104 252.404 163.451 252.404Z" fill="#36C2FF" fill-opacity="0.8"></path><path d="M2.44727 267.041C3.79454 267.041 4.88672 265.948 4.88672 264.601C4.88672 263.254 3.79454 262.162 2.44727 262.162C1.09999 262.162 0.0078125 263.254 0.0078125 264.601C0.0078125 265.948 1.09999 267.041 2.44727 267.041Z" fill="#36C2FF" fill-opacity="0.8"></path><path d="M17.084 267.041C18.4313 267.041 19.5234 265.948 19.5234 264.601C19.5234 263.254 18.4313 262.162 17.084 262.162C15.7367 262.162 14.6445 263.254 14.6445 264.601C14.6445 265.948 15.7367 267.041 17.084 267.041Z" fill="#36C2FF" fill-opacity="0.8"></path><path d="M31.7217 267.041C33.069 267.041 34.1611 265.948 34.1611 264.601C34.1611 263.254 33.069 262.162 31.7217 262.162C30.3744 262.162 29.2822 263.254 29.2822 264.601C29.2822 265.948 30.3744 267.041 31.7217 267.041Z" fill="#36C2FF" fill-opacity="0.8"></path><path d="M46.3574 267.041C47.7047 267.041 48.7969 265.948 48.7969 264.601C48.7969 263.254 47.7047 262.162 46.3574 262.162C45.0101 262.162 43.918 263.254 43.918 264.601C43.918 265.948 45.0101 267.041 46.3574 267.041Z" fill="#36C2FF" fill-opacity="0.8"></path><path d="M60.9941 267.041C62.3414 267.041 63.4336 265.948 63.4336 264.601C63.4336 263.254 62.3414 262.162 60.9941 262.162C59.6469 262.162 58.5547 263.254 58.5547 264.601C58.5547 265.948 59.6469 267.041 60.9941 267.041Z" fill="#36C2FF" fill-opacity="0.8"></path><path d="M75.6309 267.041C76.9781 267.041 78.0703 265.948 78.0703 264.601C78.0703 263.254 76.9781 262.162 75.6309 262.162C74.2836 262.162 73.1914 263.254 73.1914 264.601C73.1914 265.948 74.2836 267.041 75.6309 267.041Z" fill="#36C2FF" fill-opacity="0.8"></path><path d="M90.2686 267.041C91.6158 267.041 92.708 265.948 92.708 264.601C92.708 263.254 91.6158 262.162 90.2686 262.162C88.9213 262.162 87.8291 263.254 87.8291 264.601C87.8291 265.948 88.9213 267.041 90.2686 267.041Z" fill="#36C2FF" fill-opacity="0.8"></path><path d="M104.904 267.041C106.252 267.041 107.344 265.948 107.344 264.601C107.344 263.254 106.252 262.162 104.904 262.162C103.557 262.162 102.465 263.254 102.465 264.601C102.465 265.948 103.557 267.041 104.904 267.041Z" fill="#36C2FF" fill-opacity="0.8"></path><path d="M119.541 267.041C120.888 267.041 121.98 265.948 121.98 264.601C121.98 263.254 120.888 262.162 119.541 262.162C118.194 262.162 117.102 263.254 117.102 264.601C117.102 265.948 118.194 267.041 119.541 267.041Z" fill="#36C2FF" fill-opacity="0.8"></path><path d="M134.178 267.041C135.525 267.041 136.617 265.948 136.617 264.601C136.617 263.254 135.525 262.162 134.178 262.162C132.83 262.162 131.738 263.254 131.738 264.601C131.738 265.948 132.83 267.041 134.178 267.041Z" fill="#36C2FF" fill-opacity="0.8"></path><path d="M148.815 267.041C150.163 267.041 151.255 265.948 151.255 264.601C151.255 263.254 150.163 262.162 148.815 262.162C147.468 262.162 146.376 263.254 146.376 264.601C146.376 265.948 147.468 267.041 148.815 267.041Z" fill="#36C2FF" fill-opacity="0.8"></path><path d="M163.451 267.041C164.798 267.041 165.891 265.948 165.891 264.601C165.891 263.254 164.798 262.162 163.451 262.162C162.104 262.162 161.012 263.254 161.012 264.601C161.012 265.948 162.104 267.041 163.451 267.041Z" fill="#36C2FF" fill-opacity="0.8"></path><path d="M2.44727 281.678C3.79454 281.678 4.88672 280.586 4.88672 279.238C4.88672 277.891 3.79454 276.799 2.44727 276.799C1.09999 276.799 0.0078125 277.891 0.0078125 279.238C0.0078125 280.586 1.09999 281.678 2.44727 281.678Z" fill="#36C2FF" fill-opacity="0.8"></path><path d="M17.084 281.678C18.4313 281.678 19.5234 280.586 19.5234 279.238C19.5234 277.891 18.4313 276.799 17.084 276.799C15.7367 276.799 14.6445 277.891 14.6445 279.238C14.6445 280.586 15.7367 281.678 17.084 281.678Z" fill="#36C2FF" fill-opacity="0.8"></path><path d="M31.7217 281.678C33.069 281.678 34.1611 280.586 34.1611 279.238C34.1611 277.891 33.069 276.799 31.7217 276.799C30.3744 276.799 29.2822 277.891 29.2822 279.238C29.2822 280.586 30.3744 281.678 31.7217 281.678Z" fill="#36C2FF" fill-opacity="0.8"></path><path d="M46.3574 281.678C47.7047 281.678 48.7969 280.586 48.7969 279.238C48.7969 277.891 47.7047 276.799 46.3574 276.799C45.0101 276.799 43.918 277.891 43.918 279.238C43.918 280.586 45.0101 281.678 46.3574 281.678Z" fill="#36C2FF" fill-opacity="0.8"></path><path d="M60.9941 281.678C62.3414 281.678 63.4336 280.586 63.4336 279.238C63.4336 277.891 62.3414 276.799 60.9941 276.799C59.6469 276.799 58.5547 277.891 58.5547 279.238C58.5547 280.586 59.6469 281.678 60.9941 281.678Z" fill="#36C2FF" fill-opacity="0.8"></path><path d="M75.6309 281.678C76.9781 281.678 78.0703 280.586 78.0703 279.238C78.0703 277.891 76.9781 276.799 75.6309 276.799C74.2836 276.799 73.1914 277.891 73.1914 279.238C73.1914 280.586 74.2836 281.678 75.6309 281.678Z" fill="#36C2FF" fill-opacity="0.8"></path><path d="M90.2686 281.678C91.6158 281.678 92.708 280.586 92.708 279.238C92.708 277.891 91.6158 276.799 90.2686 276.799C88.9213 276.799 87.8291 277.891 87.8291 279.238C87.8291 280.586 88.9213 281.678 90.2686 281.678Z" fill="#36C2FF" fill-opacity="0.8"></path><path d="M104.904 281.678C106.252 281.678 107.344 280.586 107.344 279.238C107.344 277.891 106.252 276.799 104.904 276.799C103.557 276.799 102.465 277.891 102.465 279.238C102.465 280.586 103.557 281.678 104.904 281.678Z" fill="#36C2FF" fill-opacity="0.8"></path><path d="M119.541 281.678C120.888 281.678 121.98 280.586 121.98 279.238C121.98 277.891 120.888 276.799 119.541 276.799C118.194 276.799 117.102 277.891 117.102 279.238C117.102 280.586 118.194 281.678 119.541 281.678Z" fill="#36C2FF" fill-opacity="0.8"></path><path d="M134.178 281.678C135.525 281.678 136.617 280.586 136.617 279.238C136.617 277.891 135.525 276.799 134.178 276.799C132.83 276.799 131.738 277.891 131.738 279.238C131.738 280.586 132.83 281.678 134.178 281.678Z" fill="#36C2FF" fill-opacity="0.8"></path><path d="M148.815 281.678C150.163 281.678 151.255 280.586 151.255 279.238C151.255 277.891 150.163 276.799 148.815 276.799C147.468 276.799 146.376 277.891 146.376 279.238C146.376 280.586 147.468 281.678 148.815 281.678Z" fill="#36C2FF" fill-opacity="0.8"></path><path d="M163.451 281.678C164.798 281.678 165.891 280.586 165.891 279.238C165.891 277.891 164.798 276.799 163.451 276.799C162.104 276.799 161.012 277.891 161.012 279.238C161.012 280.586 162.104 281.678 163.451 281.678Z" fill="#36C2FF" fill-opacity="0.8"></path><path d="M2.44727 296.315C3.79454 296.315 4.88672 295.223 4.88672 293.875C4.88672 292.528 3.79454 291.436 2.44727 291.436C1.09999 291.436 0.0078125 292.528 0.0078125 293.875C0.0078125 295.223 1.09999 296.315 2.44727 296.315Z" fill="#36C2FF" fill-opacity="0.8"></path><path d="M17.084 296.315C18.4313 296.315 19.5234 295.223 19.5234 293.875C19.5234 292.528 18.4313 291.436 17.084 291.436C15.7367 291.436 14.6445 292.528 14.6445 293.875C14.6445 295.223 15.7367 296.315 17.084 296.315Z" fill="#36C2FF" fill-opacity="0.8"></path><path d="M31.7217 296.315C33.069 296.315 34.1611 295.223 34.1611 293.875C34.1611 292.528 33.069 291.436 31.7217 291.436C30.3744 291.436 29.2822 292.528 29.2822 293.875C29.2822 295.223 30.3744 296.315 31.7217 296.315Z" fill="#36C2FF" fill-opacity="0.8"></path><path d="M46.3574 296.315C47.7047 296.315 48.7969 295.223 48.7969 293.875C48.7969 292.528 47.7047 291.436 46.3574 291.436C45.0101 291.436 43.918 292.528 43.918 293.875C43.918 295.223 45.0101 296.315 46.3574 296.315Z" fill="#36C2FF" fill-opacity="0.8"></path><path d="M60.9941 296.315C62.3414 296.315 63.4336 295.223 63.4336 293.875C63.4336 292.528 62.3414 291.436 60.9941 291.436C59.6469 291.436 58.5547 292.528 58.5547 293.875C58.5547 295.223 59.6469 296.315 60.9941 296.315Z" fill="#36C2FF" fill-opacity="0.8"></path><path d="M75.6309 296.315C76.9781 296.315 78.0703 295.223 78.0703 293.875C78.0703 292.528 76.9781 291.436 75.6309 291.436C74.2836 291.436 73.1914 292.528 73.1914 293.875C73.1914 295.223 74.2836 296.315 75.6309 296.315Z" fill="#36C2FF" fill-opacity="0.8"></path><path d="M90.2686 296.315C91.6158 296.315 92.708 295.223 92.708 293.875C92.708 292.528 91.6158 291.436 90.2686 291.436C88.9213 291.436 87.8291 292.528 87.8291 293.875C87.8291 295.223 88.9213 296.315 90.2686 296.315Z" fill="#36C2FF" fill-opacity="0.8"></path><path d="M104.904 296.315C106.252 296.315 107.344 295.223 107.344 293.875C107.344 292.528 106.252 291.436 104.904 291.436C103.557 291.436 102.465 292.528 102.465 293.875C102.465 295.223 103.557 296.315 104.904 296.315Z" fill="#36C2FF" fill-opacity="0.8"></path><path d="M119.541 296.315C120.888 296.315 121.98 295.223 121.98 293.875C121.98 292.528 120.888 291.436 119.541 291.436C118.194 291.436 117.102 292.528 117.102 293.875C117.102 295.223 118.194 296.315 119.541 296.315Z" fill="#36C2FF" fill-opacity="0.8"></path><path d="M134.178 296.315C135.525 296.315 136.617 295.223 136.617 293.875C136.617 292.528 135.525 291.436 134.178 291.436C132.83 291.436 131.738 292.528 131.738 293.875C131.738 295.223 132.83 296.315 134.178 296.315Z" fill="#36C2FF" fill-opacity="0.8"></path><path d="M148.815 296.315C150.163 296.315 151.255 295.223 151.255 293.875C151.255 292.528 150.163 291.436 148.815 291.436C147.468 291.436 146.376 292.528 146.376 293.875C146.376 295.223 147.468 296.315 148.815 296.315Z" fill="#36C2FF" fill-opacity="0.8"></path><path d="M163.451 296.315C164.798 296.315 165.891 295.223 165.891 293.875C165.891 292.528 164.798 291.436 163.451 291.436C162.104 291.436 161.012 292.528 161.012 293.875C161.012 295.223 162.104 296.315 163.451 296.315Z" fill="#36C2FF" fill-opacity="0.8"></path><path d="M2.44727 310.95C3.79454 310.95 4.88672 309.858 4.88672 308.511C4.88672 307.164 3.79454 306.072 2.44727 306.072C1.09999 306.072 0.0078125 307.164 0.0078125 308.511C0.0078125 309.858 1.09999 310.95 2.44727 310.95Z" fill="#36C2FF" fill-opacity="0.8"></path><path d="M17.084 310.95C18.4313 310.95 19.5234 309.858 19.5234 308.511C19.5234 307.164 18.4313 306.072 17.084 306.072C15.7367 306.072 14.6445 307.164 14.6445 308.511C14.6445 309.858 15.7367 310.95 17.084 310.95Z" fill="#36C2FF" fill-opacity="0.8"></path><path d="M31.7217 310.95C33.069 310.95 34.1611 309.858 34.1611 308.511C34.1611 307.164 33.069 306.072 31.7217 306.072C30.3744 306.072 29.2822 307.164 29.2822 308.511C29.2822 309.858 30.3744 310.95 31.7217 310.95Z" fill="#36C2FF" fill-opacity="0.8"></path><path d="M46.3574 310.95C47.7047 310.95 48.7969 309.858 48.7969 308.511C48.7969 307.164 47.7047 306.072 46.3574 306.072C45.0101 306.072 43.918 307.164 43.918 308.511C43.918 309.858 45.0101 310.95 46.3574 310.95Z" fill="#36C2FF" fill-opacity="0.8"></path><path d="M60.9941 310.95C62.3414 310.95 63.4336 309.858 63.4336 308.511C63.4336 307.164 62.3414 306.072 60.9941 306.072C59.6469 306.072 58.5547 307.164 58.5547 308.511C58.5547 309.858 59.6469 310.95 60.9941 310.95Z" fill="#36C2FF" fill-opacity="0.8"></path><path d="M75.6309 310.95C76.9781 310.95 78.0703 309.858 78.0703 308.511C78.0703 307.164 76.9781 306.072 75.6309 306.072C74.2836 306.072 73.1914 307.164 73.1914 308.511C73.1914 309.858 74.2836 310.95 75.6309 310.95Z" fill="#36C2FF" fill-opacity="0.8"></path><path d="M90.2686 310.95C91.6158 310.95 92.708 309.858 92.708 308.511C92.708 307.164 91.6158 306.072 90.2686 306.072C88.9213 306.072 87.8291 307.164 87.8291 308.511C87.8291 309.858 88.9213 310.95 90.2686 310.95Z" fill="#36C2FF" fill-opacity="0.8"></path><path d="M104.904 310.95C106.252 310.95 107.344 309.858 107.344 308.511C107.344 307.164 106.252 306.072 104.904 306.072C103.557 306.072 102.465 307.164 102.465 308.511C102.465 309.858 103.557 310.95 104.904 310.95Z" fill="#36C2FF" fill-opacity="0.8"></path><path d="M119.541 310.95C120.888 310.95 121.98 309.858 121.98 308.511C121.98 307.164 120.888 306.072 119.541 306.072C118.194 306.072 117.102 307.164 117.102 308.511C117.102 309.858 118.194 310.95 119.541 310.95Z" fill="#36C2FF" fill-opacity="0.8"></path><path d="M134.178 310.95C135.525 310.95 136.617 309.858 136.617 308.511C136.617 307.164 135.525 306.072 134.178 306.072C132.83 306.072 131.738 307.164 131.738 308.511C131.738 309.858 132.83 310.95 134.178 310.95Z" fill="#36C2FF" fill-opacity="0.8"></path><path d="M148.815 310.95C150.163 310.95 151.255 309.858 151.255 308.511C151.255 307.164 150.163 306.072 148.815 306.072C147.468 306.072 146.376 307.164 146.376 308.511C146.376 309.858 147.468 310.95 148.815 310.95Z" fill="#36C2FF" fill-opacity="0.8"></path><path d="M163.451 310.95C164.798 310.95 165.891 309.858 165.891 308.511C165.891 307.164 164.798 306.072 163.451 306.072C162.104 306.072 161.012 307.164 161.012 308.511C161.012 309.858 162.104 310.95 163.451 310.95Z" fill="#36C2FF" fill-opacity="0.8"></path><path d="M2.44727 325.588C3.79454 325.588 4.88672 324.495 4.88672 323.148C4.88672 321.801 3.79454 320.709 2.44727 320.709C1.09999 320.709 0.0078125 321.801 0.0078125 323.148C0.0078125 324.495 1.09999 325.588 2.44727 325.588Z" fill="#36C2FF" fill-opacity="0.8"></path><path d="M17.084 325.587C18.4313 325.587 19.5234 324.495 19.5234 323.148C19.5234 321.801 18.4313 320.708 17.084 320.708C15.7367 320.708 14.6445 321.801 14.6445 323.148C14.6445 324.495 15.7367 325.587 17.084 325.587Z" fill="#36C2FF" fill-opacity="0.8"></path><path d="M31.7217 325.587C33.069 325.587 34.1611 324.495 34.1611 323.148C34.1611 321.801 33.069 320.708 31.7217 320.708C30.3744 320.708 29.2822 321.801 29.2822 323.148C29.2822 324.495 30.3744 325.587 31.7217 325.587Z" fill="#36C2FF" fill-opacity="0.8"></path><path d="M46.3574 325.587C47.7047 325.587 48.7969 324.495 48.7969 323.148C48.7969 321.801 47.7047 320.708 46.3574 320.708C45.0101 320.708 43.918 321.801 43.918 323.148C43.918 324.495 45.0101 325.587 46.3574 325.587Z" fill="#36C2FF" fill-opacity="0.8"></path><path d="M60.9941 325.588C62.3414 325.588 63.4336 324.495 63.4336 323.148C63.4336 321.801 62.3414 320.709 60.9941 320.709C59.6469 320.709 58.5547 321.801 58.5547 323.148C58.5547 324.495 59.6469 325.588 60.9941 325.588Z" fill="#36C2FF" fill-opacity="0.8"></path><path d="M75.6309 325.587C76.9781 325.587 78.0703 324.495 78.0703 323.148C78.0703 321.801 76.9781 320.708 75.6309 320.708C74.2836 320.708 73.1914 321.801 73.1914 323.148C73.1914 324.495 74.2836 325.587 75.6309 325.587Z" fill="#36C2FF" fill-opacity="0.8"></path><path d="M90.2686 325.587C91.6158 325.587 92.708 324.495 92.708 323.148C92.708 321.801 91.6158 320.708 90.2686 320.708C88.9213 320.708 87.8291 321.801 87.8291 323.148C87.8291 324.495 88.9213 325.587 90.2686 325.587Z" fill="#36C2FF" fill-opacity="0.8"></path><path d="M104.904 325.587C106.252 325.587 107.344 324.495 107.344 323.148C107.344 321.801 106.252 320.708 104.904 320.708C103.557 320.708 102.465 321.801 102.465 323.148C102.465 324.495 103.557 325.587 104.904 325.587Z" fill="#36C2FF" fill-opacity="0.8"></path><path d="M119.541 325.588C120.888 325.588 121.98 324.495 121.98 323.148C121.98 321.801 120.888 320.709 119.541 320.709C118.194 320.709 117.102 321.801 117.102 323.148C117.102 324.495 118.194 325.588 119.541 325.588Z" fill="#36C2FF" fill-opacity="0.8"></path><path d="M134.178 325.587C135.525 325.587 136.617 324.495 136.617 323.148C136.617 321.801 135.525 320.708 134.178 320.708C132.83 320.708 131.738 321.801 131.738 323.148C131.738 324.495 132.83 325.587 134.178 325.587Z" fill="#36C2FF" fill-opacity="0.8"></path><path d="M148.815 325.587C150.163 325.587 151.255 324.495 151.255 323.148C151.255 321.801 150.163 320.708 148.815 320.708C147.468 320.708 146.376 321.801 146.376 323.148C146.376 324.495 147.468 325.587 148.815 325.587Z" fill="#36C2FF" fill-opacity="0.8"></path><path d="M163.451 325.587C164.798 325.587 165.891 324.495 165.891 323.148C165.891 321.801 164.798 320.708 163.451 320.708C162.104 320.708 161.012 321.801 161.012 323.148C161.012 324.495 162.104 325.587 163.451 325.587Z" fill="#36C2FF" fill-opacity="0.8"></path><path d="M2.44727 340.225C3.79454 340.225 4.88672 339.132 4.88672 337.785C4.88672 336.438 3.79454 335.346 2.44727 335.346C1.09999 335.346 0.0078125 336.438 0.0078125 337.785C0.0078125 339.132 1.09999 340.225 2.44727 340.225Z" fill="#36C2FF" fill-opacity="0.8"></path><path d="M17.084 340.225C18.4313 340.225 19.5234 339.132 19.5234 337.785C19.5234 336.438 18.4313 335.346 17.084 335.346C15.7367 335.346 14.6445 336.438 14.6445 337.785C14.6445 339.132 15.7367 340.225 17.084 340.225Z" fill="#36C2FF" fill-opacity="0.8"></path><path d="M31.7217 340.225C33.069 340.225 34.1611 339.132 34.1611 337.785C34.1611 336.438 33.069 335.346 31.7217 335.346C30.3744 335.346 29.2822 336.438 29.2822 337.785C29.2822 339.132 30.3744 340.225 31.7217 340.225Z" fill="#36C2FF" fill-opacity="0.8"></path><path d="M46.3574 340.225C47.7047 340.225 48.7969 339.132 48.7969 337.785C48.7969 336.438 47.7047 335.346 46.3574 335.346C45.0101 335.346 43.918 336.438 43.918 337.785C43.918 339.132 45.0101 340.225 46.3574 340.225Z" fill="#36C2FF" fill-opacity="0.8"></path><path d="M60.9941 340.225C62.3414 340.225 63.4336 339.132 63.4336 337.785C63.4336 336.438 62.3414 335.346 60.9941 335.346C59.6469 335.346 58.5547 336.438 58.5547 337.785C58.5547 339.132 59.6469 340.225 60.9941 340.225Z" fill="#36C2FF" fill-opacity="0.8"></path><path d="M75.6309 340.225C76.9781 340.225 78.0703 339.132 78.0703 337.785C78.0703 336.438 76.9781 335.346 75.6309 335.346C74.2836 335.346 73.1914 336.438 73.1914 337.785C73.1914 339.132 74.2836 340.225 75.6309 340.225Z" fill="#36C2FF" fill-opacity="0.8"></path><path d="M90.2686 340.225C91.6158 340.225 92.708 339.132 92.708 337.785C92.708 336.438 91.6158 335.346 90.2686 335.346C88.9213 335.346 87.8291 336.438 87.8291 337.785C87.8291 339.132 88.9213 340.225 90.2686 340.225Z" fill="#36C2FF" fill-opacity="0.8"></path><path d="M104.904 340.225C106.252 340.225 107.344 339.132 107.344 337.785C107.344 336.438 106.252 335.346 104.904 335.346C103.557 335.346 102.465 336.438 102.465 337.785C102.465 339.132 103.557 340.225 104.904 340.225Z" fill="#36C2FF" fill-opacity="0.8"></path><path d="M119.541 340.225C120.888 340.225 121.98 339.132 121.98 337.785C121.98 336.438 120.888 335.346 119.541 335.346C118.194 335.346 117.102 336.438 117.102 337.785C117.102 339.132 118.194 340.225 119.541 340.225Z" fill="#36C2FF" fill-opacity="0.8"></path><path d="M134.178 340.225C135.525 340.225 136.617 339.132 136.617 337.785C136.617 336.438 135.525 335.346 134.178 335.346C132.83 335.346 131.738 336.438 131.738 337.785C131.738 339.132 132.83 340.225 134.178 340.225Z" fill="#36C2FF" fill-opacity="0.8"></path><path d="M148.815 340.225C150.163 340.225 151.255 339.132 151.255 337.785C151.255 336.438 150.163 335.346 148.815 335.346C147.468 335.346 146.376 336.438 146.376 337.785C146.376 339.132 147.468 340.225 148.815 340.225Z" fill="#36C2FF" fill-opacity="0.8"></path><path d="M163.451 340.225C164.798 340.225 165.891 339.132 165.891 337.785C165.891 336.438 164.798 335.346 163.451 335.346C162.104 335.346 161.012 336.438 161.012 337.785C161.012 339.132 162.104 340.225 163.451 340.225Z" fill="#36C2FF" fill-opacity="0.8"></path></g></g></g><g clip-path="url(#clip3_1634_4534)"><path d="M371.772 90.1023C371.841 102.683 374.387 115.127 379.265 126.724C384.143 138.321 391.257 148.843 400.201 157.691C409.146 166.538 419.745 173.537 431.395 178.288C443.044 183.04 455.515 185.449 468.096 185.381C480.677 185.312 493.121 182.767 504.718 177.888C516.315 173.01 526.837 165.896 535.684 156.952C544.532 148.008 551.531 137.408 556.282 125.759C561.034 114.109 563.443 101.638 563.375 89.0576L371.772 90.1023Z" fill="#36C2FF" fill-opacity="0.5"></path></g><defs><clipPath id="clip0_1634_4534"><rect y="188.236" width="165.898" height="152.059" rx="8.11675" fill="white"></rect></clipPath><clipPath id="clip1_1634_4534"><rect width="165.898" height="152.059" fill="white" transform="translate(0 188.236)"></rect></clipPath><clipPath id="clip2_1634_4534"><rect width="165.883" height="152.059" fill="white" transform="translate(0.0078125 188.236)"></rect></clipPath><clipPath id="clip3_1634_4534"><rect width="192.546" height="98.2127" fill="white" transform="translate(377.454 88.6914)"></rect></clipPath></defs></svg>