<svg xmlns="http://www.w3.org/2000/svg" width="586" height="570" viewBox="0 0 586 570" fill="none"><path d="M228.394 156.454C234.678 164.824 246.557 166.514 254.926 160.23C263.295 153.946 264.985 142.067 258.701 133.697C252.417 125.328 240.538 123.638 232.169 129.922C223.8 136.206 222.11 148.085 228.394 156.454Z" fill="#36C2FF" fill-opacity="0.1"></path><circle cx="163.893" cy="64.7241" r="35" fill="#36C2FF" fill-opacity="0.5"></circle><path d="M112.314 400.15C118.598 408.519 130.477 410.209 138.846 403.925C147.215 397.641 148.905 385.762 142.621 377.393C136.337 369.023 124.458 367.333 116.089 373.617C107.719 379.901 106.029 391.78 112.314 400.15Z" fill="#36C2FF"></path><circle cx="113.148" cy="494.81" r="75" fill="#36C2FF" fill-opacity="0.5"></circle><circle cx="450.336" cy="135.724" r="135" fill="#36C2FF" fill-opacity="0.5"></circle><circle cx="15.7148" cy="350.724" r="15" fill="#36C2FF" fill-opacity="0.3"></circle></svg>