<svg xmlns="http://www.w3.org/2000/svg" width="150" height="50" viewBox="0 0 150 50" fill="none"><path d="M10.5795 0.00248743C11.038 1.02731e-06 11.4921 1.02744e-06 11.9518 1.02744e-06H138.055C138.505 1.02744e-06 138.963 -0.000123293 139.413 0.00236311C139.725 0.00429165 140.044 0.00953506 140.358 0.0147103C140.428 0.0158737 140.499 0.0170337 140.569 0.0181518C141.409 0.0273865 142.247 0.100829 143.076 0.237826C143.908 0.378208 144.714 0.640931 145.468 1.01731C146.976 1.78528 148.203 3.00263 148.976 4.49816C149.354 5.24327 149.616 6.04108 149.752 6.86422C149.892 7.68697 149.97 8.51891 149.985 9.35312C149.99 9.73441 149.99 10.1168 149.99 10.4981C150 10.9485 150 11.4001 150 11.8554V37.8739C150 38.3329 150 38.7821 149.99 39.2338C149.99 39.6198 149.99 39.9937 149.985 40.3799C149.97 41.214 149.892 42.0459 149.752 42.8686C149.616 43.6923 149.355 44.4906 148.976 45.2361C148.592 45.978 148.092 46.6552 147.495 47.243C146.903 47.8358 146.218 48.3305 145.468 48.7083C144.714 49.0857 143.908 49.35 143.076 49.4925C142.247 49.6285 141.409 49.7019 140.569 49.7123C140.187 49.7208 139.795 49.7256 139.413 49.7256C138.963 49.7281 138.505 49.7281 138.054 49.7281H11.9518C11.4921 49.7281 11.038 49.7281 10.5796 49.7256C10.1958 49.7256 9.81495 49.7208 9.42762 49.7123C8.58596 49.7013 7.74631 49.6279 6.91572 49.4925C6.08633 49.351 5.28309 49.0866 4.53293 48.7083C3.78189 48.3307 3.09686 47.836 2.504 47.243C1.90565 46.6575 1.4069 45.9797 1.02712 45.2361C0.645754 44.4912 0.38155 43.6928 0.243682 42.8686C0.104127 42.0461 0.0290261 41.214 0.0190533 40.38C0.0110824 40.1159 0.00797558 39.8575 0.00484429 39.5971C0.00339599 39.4767 0.00194246 39.3558 0 39.2338V10.4981C0.00196523 10.3761 0.00343 10.254 0.00489521 10.1319C0.0080094 9.87223 0.0111256 9.61245 0.0190533 9.35324C0.0290166 8.5191 0.104117 7.68698 0.243682 6.86435C0.381922 6.04064 0.64611 5.24268 1.02712 4.49803C1.40708 3.75198 1.90576 3.07151 2.504 2.4828C3.09911 1.89239 3.7837 1.39796 4.53293 1.01744C5.2831 0.64013 6.08642 0.377337 6.91572 0.23795C7.74617 0.101533 8.5859 0.0280957 9.42762 0.0182761C9.50698 0.0170283 9.58607 0.0157335 9.66495 0.014442C9.97116 0.00942858 10.2744 0.00446452 10.5795 0.00248743Z" fill="white"></path><path d="M10.5855 48.64C10.2036 48.64 9.83092 48.6352 9.45199 48.6267C8.66704 48.6166 7.88392 48.5489 7.10906 48.4241C6.38654 48.3006 5.68661 48.071 5.03238 47.7428C4.38412 47.4174 3.79285 46.9906 3.28123 46.479C2.76216 45.9733 2.33001 45.3869 2.0019 44.7428C1.67021 44.0946 1.44066 43.3998 1.32125 42.6826C1.19233 41.912 1.12261 41.1327 1.11266 40.3516C1.10464 40.0894 1.09424 39.2166 1.09424 39.2166V10.4979C1.09424 10.4979 1.10527 9.63835 1.11266 9.38573C1.12222 8.60588 1.19157 7.82788 1.32012 7.05847C1.43977 6.3393 1.66951 5.64249 2.0014 4.99215C2.32825 4.34855 2.75795 3.76163 3.27383 3.25416C3.78917 2.74187 4.38236 2.31294 5.03175 1.983C5.6845 1.65591 6.38311 1.42797 7.10417 1.30682C7.88159 1.18079 8.66744 1.11268 9.45512 1.10306L10.5862 1.08765H139.407L140.552 1.10344C141.332 1.11263 142.111 1.1802 142.881 1.30558C143.61 1.42828 144.316 1.65785 144.976 1.98673C146.277 2.65163 147.335 3.70358 148.003 4.99513C148.33 5.64102 148.556 6.33218 148.674 7.04516C148.804 7.82088 148.877 8.60497 148.892 9.3912C148.896 9.74327 148.896 10.1215 148.896 10.4979C148.906 10.9641 148.906 11.4078 148.906 11.8552V37.8736C148.906 38.3252 148.906 38.7659 148.896 39.2102C148.896 39.6145 148.896 39.9849 148.891 40.366C148.876 41.1383 148.804 41.9084 148.676 42.6703C148.559 43.3927 148.331 44.0929 147.999 44.7464C147.669 45.3835 147.239 45.9648 146.726 46.4691C146.214 46.9836 145.622 47.4128 144.972 47.7403C144.314 48.071 143.609 48.3014 142.881 48.4238C142.107 48.5493 141.323 48.6171 140.538 48.6266C140.163 48.6353 139.788 48.6397 139.413 48.6399L138.055 48.6424L10.5855 48.64Z" fill="white"></path><path d="M31.0479 25.2376C31.0614 24.2 31.3393 23.1826 31.8557 22.2801C32.3722 21.3776 33.1104 20.6194 34.0018 20.0759C33.4355 19.2738 32.6885 18.6137 31.8201 18.1481C30.9516 17.6824 29.9856 17.424 28.9989 17.3934C26.8939 17.1742 24.8533 18.6426 23.7806 18.6426C22.6872 18.6426 21.0357 17.4152 19.2574 17.4515C18.1071 17.4883 16.986 17.82 16.0034 18.4143C15.0208 19.0086 14.2101 19.8453 13.6505 20.8427C11.2262 25.0055 13.0345 31.1233 15.3569 34.4882C16.5187 36.1359 17.8765 37.9764 19.6534 37.9111C21.392 37.8396 22.0413 36.8115 24.1402 36.8115C26.2195 36.8115 26.8287 37.9111 28.6415 37.8696C30.5072 37.8396 31.6826 36.2146 32.8038 34.5513C33.6386 33.3773 34.281 32.0798 34.7071 30.7067C33.6232 30.2521 32.6982 29.491 32.0475 28.5184C31.3968 27.5459 31.0491 26.4048 31.0479 25.2376ZM27.6238 15.1804C28.641 13.9692 29.1422 12.4125 29.0208 10.8408C27.4667 11.0027 26.0311 11.7394 25.0001 12.9041C24.496 13.473 24.1099 14.135 23.8639 14.852C23.6179 15.5691 23.5169 16.3272 23.5665 17.083C24.3438 17.0909 25.1128 16.9238 25.8157 16.5943C26.5185 16.2647 27.1367 15.7813 27.6238 15.1804V15.1804ZM53.0261 33.7399H47.0927L45.6679 37.9126H43.1546L48.7747 22.4745H51.3857L57.0057 37.9126H54.4497L53.0261 33.7399ZM47.7072 31.8143H52.4104L50.0919 25.0423H50.0269L47.7072 31.8143ZM69.1429 32.2855C69.1429 35.7831 67.2553 38.0303 64.4068 38.0303C63.6852 38.0678 62.9675 37.9029 62.336 37.5547C61.7045 37.2064 61.1846 36.6888 60.8359 36.0611H60.782V41.6361H58.4525V26.657H60.7074V28.5291H60.7503C61.115 27.9045 61.6437 27.3896 62.28 27.0392C62.9163 26.6888 63.6365 26.516 64.3639 26.5393C67.2442 26.5393 69.1429 28.7974 69.1429 32.2854V32.2855ZM66.7485 32.2855C66.7485 30.0067 65.5611 28.5085 63.7495 28.5085C61.9695 28.5085 60.7724 30.0381 60.7724 32.2854C60.7724 34.5533 61.9695 36.0722 63.7495 36.0722C65.5611 36.0722 66.7485 34.5849 66.7485 32.2854V32.2855ZM81.6338 32.2855C81.6338 35.7831 79.7463 38.0303 76.8977 38.0303C76.1761 38.0678 75.4585 37.9029 74.827 37.5546C74.1955 37.2064 73.6757 36.6888 73.327 36.0611H73.2731V41.6361H70.9436V26.657H73.1984V28.5291H73.2412C73.606 27.9045 74.1346 27.3896 74.7709 27.0392C75.4072 26.6888 76.1274 26.516 76.8549 26.5393C79.7353 26.5393 81.6338 28.7974 81.6338 32.2854V32.2855ZM79.2395 32.2855C79.2395 30.0067 78.0521 28.5085 76.2404 28.5085C74.4604 28.5085 73.2633 30.0381 73.2633 32.2854C73.2633 34.5533 74.4604 36.0722 76.2404 36.0722C78.0521 36.0722 79.2395 34.5849 79.2395 32.2854V32.2855ZM89.8894 33.6112C90.062 35.1421 91.5616 36.1474 93.6107 36.1474C95.5742 36.1474 96.9869 35.1421 96.9869 33.7617C96.9869 32.5633 96.1349 31.8459 94.1176 31.3542L92.1001 30.8722C89.2419 30.1875 87.9149 28.8617 87.9149 26.7103C87.9149 24.0467 90.2555 22.2172 93.5789 22.2172C96.8681 22.2172 99.123 24.0467 99.1988 26.7103H96.8473C96.7065 25.1698 95.4224 24.2397 93.5458 24.2397C91.6693 24.2397 90.3852 25.1807 90.3852 26.5501C90.3852 27.6416 91.2054 28.2839 93.2116 28.7754L94.9266 29.1931C98.1203 29.9422 99.4474 31.2146 99.4474 33.4726C99.4474 36.361 97.1277 38.1699 93.4381 38.1699C89.9859 38.1699 87.6553 36.4033 87.5048 33.6111L89.8894 33.6112ZM104.475 23.9934V26.657H106.633V28.4866H104.475V34.6917C104.475 35.6557 104.907 36.1049 105.856 36.1049C106.112 36.1004 106.368 36.0826 106.622 36.0514V37.8702C106.195 37.9492 105.762 37.9849 105.328 37.9769C103.03 37.9769 102.134 37.121 102.134 34.9381V28.4866H100.484V26.657H102.134V23.9934H104.475ZM107.883 32.2855C107.883 28.744 109.986 26.5186 113.265 26.5186C116.556 26.5186 118.649 28.744 118.649 32.2855C118.649 35.8366 116.567 38.0522 113.265 38.0522C109.965 38.0522 107.883 35.8366 107.883 32.2855ZM116.275 32.2855C116.275 29.8561 115.153 28.4222 113.265 28.4222C111.378 28.4222 110.256 29.867 110.256 32.2855C110.256 34.7245 111.378 36.1474 113.265 36.1474C115.153 36.1474 116.275 34.7245 116.275 32.2855ZM120.57 26.657H122.791V28.5728H122.845C122.996 27.9744 123.349 27.4457 123.846 27.0753C124.343 26.705 124.954 26.5157 125.575 26.5393C125.844 26.5383 126.111 26.5672 126.373 26.6254V28.7865C126.034 28.6838 125.681 28.6366 125.327 28.6469C124.988 28.6333 124.651 28.6924 124.338 28.8203C124.024 28.9482 123.743 29.1419 123.512 29.3879C123.282 29.6339 123.108 29.9265 123.002 30.2456C122.896 30.5647 122.861 30.9027 122.899 31.2365V37.9126H120.57V26.657ZM137.114 34.6067C136.8 36.65 134.794 38.0522 132.227 38.0522C128.926 38.0522 126.876 35.8585 126.876 32.3388C126.876 28.8084 128.937 26.5186 132.129 26.5186C135.269 26.5186 137.243 28.6578 137.243 32.0705V32.8621H129.228V33.0017C129.191 33.4159 129.243 33.8332 129.381 34.2259C129.519 34.6185 129.74 34.9776 130.029 35.2791C130.318 35.5807 130.668 35.8178 131.056 35.9748C131.444 36.1319 131.862 36.2052 132.281 36.1899C132.831 36.2411 133.384 36.1146 133.856 35.8294C134.328 35.5441 134.695 35.1153 134.902 34.6067H137.114ZM129.239 31.2474H134.913C134.934 30.8749 134.877 30.5022 134.745 30.1526C134.614 29.803 134.412 29.4841 134.15 29.2158C133.889 28.9476 133.574 28.7358 133.227 28.5938C132.879 28.4518 132.505 28.3826 132.129 28.3907C131.75 28.3884 131.374 28.4607 131.023 28.6034C130.672 28.746 130.353 28.9562 130.084 29.2218C129.815 29.4874 129.602 29.8031 129.457 30.1508C129.312 30.4985 129.238 30.8712 129.239 31.2474V31.2474ZM47.4153 10.8542C47.9037 10.8194 48.3937 10.8926 48.8502 11.0684C49.3066 11.2442 49.718 11.5183 50.0547 11.8709C50.3913 12.2236 50.6449 12.6459 50.7971 13.1075C50.9492 13.569 50.9962 14.0584 50.9346 14.5401C50.9346 16.9099 49.6431 18.2722 47.4153 18.2722H44.7136V10.854L47.4153 10.8542ZM45.8753 17.2231H47.2855C47.6345 17.2438 47.9837 17.187 48.3078 17.0569C48.6319 16.9269 48.9226 16.7268 49.1589 16.4712C49.3952 16.2157 49.571 15.9111 49.6736 15.5796C49.7762 15.2482 49.803 14.8982 49.7521 14.5552C49.7993 14.2135 49.7698 13.8657 49.6656 13.5367C49.5614 13.2076 49.3852 12.9055 49.1494 12.652C48.9137 12.3985 48.6244 12.1998 48.3021 12.0702C47.9799 11.9406 47.6327 11.8833 47.2855 11.9024H45.8753V17.2231ZM52.2469 15.4707C52.2114 15.1028 52.2538 14.7316 52.3715 14.3809C52.4891 14.0303 52.6793 13.7078 52.9299 13.4343C53.1806 13.1609 53.4861 12.9423 53.8268 12.7928C54.1676 12.6433 54.5361 12.566 54.9087 12.566C55.2814 12.566 55.6499 12.6433 55.9906 12.7928C56.3314 12.9423 56.6369 13.1609 56.8875 13.4343C57.1382 13.7078 57.3284 14.0303 57.446 14.3809C57.5636 14.7316 57.606 15.1028 57.5706 15.4707C57.6068 15.839 57.565 16.2107 57.4477 16.5621C57.3304 16.9134 57.1403 17.2365 56.8896 17.5106C56.6389 17.7847 56.3332 18.0037 55.992 18.1536C55.6509 18.3035 55.2819 18.3809 54.9087 18.3809C54.5356 18.3809 54.1666 18.3035 53.8254 18.1536C53.4843 18.0037 53.1785 17.7847 52.9278 17.5106C52.6771 17.2365 52.487 16.9134 52.3698 16.5621C52.2525 16.2107 52.2106 15.839 52.2469 15.4707ZM56.4248 15.4707C56.4248 14.2572 55.8752 13.5476 54.9106 13.5476C53.9423 13.5476 53.3976 14.2572 53.3976 15.4707C53.3976 16.6938 53.9424 17.398 54.9106 17.398C55.8752 17.398 56.4248 16.689 56.4248 15.4707V15.4707ZM64.6473 18.2721H63.4916L62.3251 14.1491H62.237L61.0754 18.2721H59.9308L58.3749 12.674H59.5047L60.5159 16.9456H60.5991L61.7596 12.674H62.8283L63.9888 16.9456H64.0769L65.0831 12.674H66.1971L64.6473 18.2721ZM67.5056 12.6741H68.578V13.5633H68.6612C68.8024 13.2439 69.0406 12.9761 69.3425 12.7973C69.6445 12.6186 69.9951 12.5377 70.3457 12.5659C70.6203 12.5454 70.8961 12.5865 71.1525 12.6861C71.409 12.7857 71.6396 12.9412 71.8272 13.1412C72.0148 13.3411 72.1547 13.5804 72.2364 13.8412C72.3182 14.1021 72.3397 14.3778 72.2994 14.648V18.272H71.1854V14.9255C71.1854 14.0259 70.7912 13.5785 69.9673 13.5785C69.7809 13.5699 69.5947 13.6014 69.4217 13.6708C69.2486 13.7402 69.0928 13.8459 68.9648 13.9807C68.8368 14.1154 68.7396 14.276 68.6801 14.4514C68.6205 14.6269 68.5998 14.813 68.6196 14.9971V18.2721H67.5056V12.6741ZM74.0743 10.4886H75.1882V18.2721H74.0743V10.4886ZM76.7368 15.4707C76.7013 15.1027 76.7437 14.7315 76.8614 14.3808C76.979 14.0301 77.1692 13.7076 77.4199 13.4341C77.6706 13.1605 77.9761 12.942 78.3169 12.7925C78.6577 12.6429 79.0263 12.5657 79.399 12.5657C79.7716 12.5657 80.1402 12.6429 80.481 12.7925C80.8218 12.942 81.1274 13.1605 81.378 13.4341C81.6287 13.7076 81.819 14.0301 81.9366 14.3808C82.0542 14.7315 82.0967 15.1027 82.0612 15.4707C82.0972 15.8389 82.0552 16.2106 81.9379 16.5618C81.8205 16.913 81.6303 17.236 81.3796 17.51C81.1289 17.7839 80.8232 18.0029 80.4821 18.1527C80.141 18.3025 79.772 18.3799 79.399 18.3799C79.0259 18.3799 78.657 18.3025 78.3159 18.1527C77.9748 18.0029 77.669 17.7839 77.4183 17.51C77.1676 17.236 76.9774 16.913 76.8601 16.5618C76.7427 16.2106 76.7007 15.8389 76.7368 15.4707V15.4707ZM80.9147 15.4707C80.9147 14.2572 80.365 13.5476 79.4005 13.5476C78.4321 13.5476 77.8875 14.2572 77.8875 15.4707C77.8875 16.6938 78.4323 17.398 79.4005 17.398C80.365 17.398 80.9147 16.689 80.9147 15.4707ZM83.2338 16.689C83.2338 15.6813 83.9903 15.1003 85.3332 15.0178L86.8621 14.9304V14.4471C86.8621 13.8559 86.468 13.5221 85.7066 13.5221C85.0847 13.5221 84.6538 13.7485 84.5302 14.1443H83.4517C83.5655 13.1827 84.4775 12.566 85.758 12.566C87.1731 12.566 87.9712 13.2647 87.9712 14.4471V18.2721H86.8988V17.4854H86.8107C86.6318 17.7676 86.3806 17.9976 86.0828 18.1521C85.7849 18.3065 85.4511 18.3797 85.1153 18.3643C84.8784 18.3888 84.6389 18.3637 84.4123 18.2907C84.1857 18.2178 83.9771 18.0985 83.7998 17.9407C83.6225 17.7828 83.4806 17.5899 83.3831 17.3743C83.2856 17.1587 83.2348 16.9253 83.2338 16.689V16.689ZM86.8621 16.2106V15.7426L85.4837 15.8299C84.7064 15.8815 84.3538 16.1439 84.3538 16.6373C84.3538 17.1412 84.7946 17.4344 85.4005 17.4344C85.5781 17.4523 85.7574 17.4345 85.9279 17.3821C86.0984 17.3298 86.2565 17.244 86.3929 17.1298C86.5293 17.0157 86.6411 16.8754 86.7217 16.7175C86.8023 16.5596 86.85 16.3872 86.8621 16.2106V16.2106ZM89.4353 15.4707C89.4353 13.7017 90.3521 12.5812 91.7782 12.5812C92.131 12.5651 92.4811 12.6489 92.7876 12.8228C93.0941 12.9967 93.3444 13.2536 93.5092 13.5633H93.5924V10.4885H94.7063V18.272H93.6389V17.3874H93.5508C93.3733 17.6951 93.1143 17.9488 92.8019 18.121C92.4895 18.2931 92.1355 18.3773 91.7783 18.3642C90.3423 18.3642 89.4353 17.2436 89.4353 15.4705V15.4707ZM90.586 15.4707C90.586 16.6579 91.1503 17.3725 92.094 17.3725C93.0329 17.3725 93.6132 16.6477 93.6132 15.4754C93.6132 14.3088 93.0268 13.5737 92.094 13.5737C91.1564 13.5737 90.586 14.293 90.586 15.4707ZM99.3152 15.4707C99.2797 15.1028 99.3221 14.7316 99.4397 14.3809C99.5573 14.0303 99.7476 13.7078 99.9982 13.4343C100.249 13.1609 100.554 12.9423 100.895 12.7928C101.236 12.6433 101.604 12.566 101.977 12.566C102.35 12.566 102.718 12.6433 103.059 12.7928C103.4 12.9423 103.705 13.1609 103.956 13.4343C104.206 13.7078 104.397 14.0303 104.514 14.3809C104.632 14.7316 104.674 15.1028 104.639 15.4707C104.675 15.839 104.633 16.2107 104.516 16.5621C104.399 16.9134 104.209 17.2365 103.958 17.5106C103.707 17.7847 103.401 18.0037 103.06 18.1536C102.719 18.3035 102.35 18.3809 101.977 18.3809C101.604 18.3809 101.235 18.3035 100.894 18.1536C100.553 18.0037 100.247 17.7847 99.9961 17.5106C99.7454 17.2365 99.5553 16.9134 99.438 16.5621C99.3207 16.2107 99.2789 15.839 99.3152 15.4707V15.4707ZM103.493 15.4707C103.493 14.2572 102.943 13.5476 101.979 13.5476C101.011 13.5476 100.466 14.2572 100.466 15.4707C100.466 16.6938 101.011 17.398 101.979 17.398C102.943 17.398 103.493 16.689 103.493 15.4707ZM106.133 12.6741H107.206V13.5633H107.289C107.43 13.2439 107.668 12.9761 107.97 12.7973C108.272 12.6186 108.623 12.5377 108.974 12.5659C109.248 12.5454 109.524 12.5865 109.78 12.6861C110.037 12.7857 110.267 12.9412 110.455 13.1412C110.643 13.3411 110.783 13.5804 110.864 13.8412C110.946 14.1021 110.968 14.3778 110.927 14.648V18.272H109.813V14.9255C109.813 14.0259 109.419 13.5785 108.595 13.5785C108.409 13.5699 108.223 13.6014 108.05 13.6708C107.877 13.7402 107.721 13.8459 107.593 13.9807C107.465 14.1154 107.368 14.276 107.308 14.4514C107.248 14.6269 107.228 14.813 107.247 14.9971V18.2721H106.134L106.133 12.6741ZM117.222 11.2803V12.6996H118.445V13.6301H117.222V16.5086C117.222 17.095 117.465 17.3519 118.02 17.3519C118.162 17.3514 118.304 17.3428 118.445 17.3263V18.2466C118.244 18.2821 118.042 18.301 117.839 18.3031C116.6 18.3031 116.107 17.8708 116.107 16.7916V13.6301H115.21V12.6994H116.107V11.2804L117.222 11.2803ZM119.966 10.4886H121.07V13.5737H121.159C121.307 13.2513 121.551 12.982 121.859 12.8025C122.167 12.623 122.524 12.5421 122.88 12.5708C123.153 12.556 123.426 12.6013 123.68 12.7033C123.933 12.8053 124.161 12.9615 124.346 13.1608C124.532 13.3602 124.671 13.5977 124.754 13.8565C124.836 14.1153 124.86 14.3889 124.824 14.6579V18.2721H123.708V14.9304C123.708 14.0361 123.288 13.5834 122.501 13.5834C122.31 13.5678 122.117 13.5939 121.937 13.6599C121.757 13.7258 121.593 13.83 121.458 13.9652C121.323 14.1004 121.219 14.2633 121.153 14.4425C121.088 14.6217 121.063 14.8128 121.08 15.0026V18.2721H119.966V10.4886ZM131.319 16.7605C131.167 17.2721 130.84 17.7147 130.392 18.0108C129.945 18.3069 129.407 18.4376 128.873 18.3801C128.501 18.3899 128.132 18.3192 127.79 18.1731C127.448 18.027 127.143 17.8089 126.895 17.534C126.647 17.2591 126.462 16.9339 126.353 16.5811C126.245 16.2282 126.215 15.8562 126.266 15.4907C126.216 15.1241 126.246 14.7512 126.355 14.3973C126.463 14.0433 126.647 13.7166 126.894 13.4393C127.141 13.162 127.445 12.9405 127.785 12.7898C128.126 12.6391 128.495 12.5627 128.868 12.5659C130.439 12.5659 131.386 13.6301 131.386 15.388V15.7735H127.4V15.8354C127.383 16.0408 127.409 16.2476 127.477 16.4425C127.545 16.6374 127.653 16.816 127.794 16.967C127.936 17.118 128.108 17.238 128.299 17.3193C128.49 17.4006 128.696 17.4414 128.904 17.4391C129.17 17.4709 129.44 17.4233 129.679 17.3025C129.918 17.1816 130.116 16.993 130.246 16.7605H131.319ZM127.4 14.9565H130.251C130.265 14.7686 130.24 14.5799 130.176 14.4025C130.112 14.225 130.011 14.0628 129.88 13.9262C129.75 13.7897 129.591 13.6818 129.416 13.6094C129.241 13.5371 129.052 13.502 128.862 13.5063C128.669 13.5039 128.478 13.5397 128.3 13.6118C128.121 13.6838 127.959 13.7906 127.823 13.9257C127.687 14.0609 127.579 14.2217 127.506 14.3987C127.434 14.5758 127.398 14.7654 127.4 14.9565V14.9565Z" fill="#242424"></path></svg>