<svg xmlns="http://www.w3.org/2000/svg" width="48" height="57" viewBox="0 0 48 57" fill="none"><path d="M34.0191 24.6956C33.6188 22.7237 32.896 20.8048 31.8135 19.0214C28.7092 14.2335 24.0333 11.8178 19.152 12.4923C14.7955 13.1061 11.0948 16.0063 9.90017 19.7429C8.92986 22.9842 10.0296 26.2675 13.0108 28.9107C17.0885 32.6472 21.3952 33.901 25.4884 32.7701C28.2173 32.0162 30.7421 30.1751 33.0862 27.8543C33.1859 34.664 29.7018 42.1388 25.0744 47.3053C17.9985 55.2427 9.00208 57.5356 1.06157 53.5421L0.343558 54.9081C8.86193 59.1632 18.5032 56.7644 26.0058 48.3239C28.2222 45.8458 30.1753 42.8506 31.6331 39.6311C33.5395 35.4209 34.6204 30.837 34.2543 26.5927C42.2133 17.364 46.9231 1.6902 47.1318 0.789927L45.8188 0.394325C45.8266 0.596808 41.3706 15.4903 34.0191 24.6956ZM32.8587 26.1597C30.485 28.7655 27.8481 30.8543 25.1193 31.6082C21.4684 32.6409 17.6119 31.4915 13.8721 28.107C11.3488 25.7707 10.3099 23.0122 11.1384 20.3036C11.2506 20.056 11.3176 19.6884 11.4297 19.4407C12.7006 16.634 15.7799 14.4471 19.2891 13.9471C23.6455 13.3333 27.8634 15.4422 30.6297 19.8781C31.8774 21.7362 32.6079 23.8576 32.8587 26.1597Z" fill="#36C2FF" fill-opacity="0.8"></path></svg>